<svg width="25" height="21" viewBox="0 0 25 21" fill="none" xmlns="http://www.w3.org/2000/svg">
<path d="M24.5837 5.10498V16.5419C24.5837 17.4665 24.2304 18.3562 23.5961 19.0289C22.9618 19.7017 22.0944 20.1066 21.1713 20.1608L20.9587 20.1669H4.04199C3.11736 20.1669 2.22766 19.8136 1.55493 19.1793C0.882192 18.545 0.477279 17.6776 0.423034 16.7545L0.416992 16.5419V5.10498L11.8297 12.7139L11.9699 12.7936C12.1351 12.8743 12.3165 12.9163 12.5003 12.9163C12.6842 12.9163 12.8656 12.8743 13.0308 12.7936L13.171 12.7139L24.5837 5.10498Z" fill="white"/>
<path d="M20.9581 0.833496C22.2631 0.833496 23.4074 1.52225 24.0454 2.55779L12.4997 10.2549L0.954102 2.55779C1.25707 2.06572 1.67332 1.65323 2.16812 1.35475C2.66293 1.05627 3.22194 0.880447 3.79852 0.841954L4.04139 0.833496H20.9581Z" fill="white"/>
</svg>
