<svg width="19" height="30" viewBox="0 0 19 30" fill="none" xmlns="http://www.w3.org/2000/svg">
<path d="M17.5 0.833252C17.847 0.833298 18.1819 0.96069 18.4412 1.19127C18.7005 1.42184 18.8662 1.73956 18.9067 2.08417L18.9167 2.24992V7.91659C18.9166 8.26357 18.7892 8.59848 18.5587 8.85778C18.3281 9.11708 18.0104 9.28274 17.6658 9.32334L17.5 9.33325H13.25V10.7499H17.5C17.7017 10.75 17.901 10.7931 18.0847 10.8764C18.2683 10.9597 18.4321 11.0813 18.565 11.233C18.6979 11.3846 18.7969 11.563 18.8553 11.756C18.9138 11.949 18.9303 12.1522 18.9039 12.3522L18.8756 12.5108L17.4589 18.1775C17.3886 18.4573 17.2345 18.709 17.0173 18.8988C16.8001 19.0887 16.5301 19.2077 16.2434 19.24L16.0833 19.2499H13.25V27.7499C13.25 28.0969 13.1226 28.4318 12.892 28.6911C12.6614 28.9504 12.3437 29.1161 11.9991 29.1567L11.8333 29.1666H6.16667C5.81968 29.1665 5.48477 29.0391 5.22547 28.8086C4.96617 28.578 4.80051 28.2603 4.75992 27.9157L4.75 27.7499V19.2499H1.91667C1.56968 19.2499 1.23477 19.1225 0.975473 18.8919C0.716174 18.6613 0.550514 18.3436 0.509917 17.999L0.5 17.8333V12.1666C0.500046 11.8196 0.627438 11.4847 0.858013 11.2254C1.08859 10.9661 1.40631 10.8004 1.75092 10.7598L1.91667 10.7499H4.75V9.33325C4.74992 7.13405 5.60222 5.02041 7.12783 3.43642C8.65343 1.85243 10.7336 0.921389 12.9312 0.838919L13.25 0.833252H17.5Z" fill="white"/>
</svg>
