<svg width="30" height="30" viewBox="0 0 30 30" fill="none" xmlns="http://www.w3.org/2000/svg">
<path d="M2 8.5C2 6.77609 2.68482 5.12279 3.90381 3.90381C5.12279 2.68482 6.77609 2 8.5 2H21.5C23.2239 2 24.8772 2.68482 26.0962 3.90381C27.3152 5.12279 28 6.77609 28 8.5V21.5C28 23.2239 27.3152 24.8772 26.0962 26.0962C24.8772 27.3152 23.2239 28 21.5 28H8.5C6.77609 28 5.12279 27.3152 3.90381 26.0962C2.68482 24.8772 2 23.2239 2 21.5V8.5Z" stroke="white" stroke-width="3" stroke-linecap="round" stroke-linejoin="round"/>
<path d="M10 15C10 16.3261 10.5268 17.5979 11.4645 18.5355C12.4021 19.4732 13.6739 20 15 20C16.3261 20 17.5979 19.4732 18.5355 18.5355C19.4732 17.5979 20 16.3261 20 15C20 13.6739 19.4732 12.4021 18.5355 11.4645C17.5979 10.5268 16.3261 10 15 10C13.6739 10 12.4021 10.5268 11.4645 11.4645C10.5268 12.4021 10 13.6739 10 15Z" stroke="white" stroke-width="3" stroke-linecap="round" stroke-linejoin="round"/>
<path d="M23 8V8.0234" stroke="white" stroke-width="3" stroke-linecap="round" stroke-linejoin="round"/>
</svg>
