<svg width="21" height="23" viewBox="0 0 21 23" fill="none" xmlns="http://www.w3.org/2000/svg">
<path d="M7.58333 0.921875C7.77756 0.921818 7.96822 0.976986 8.13537 1.0816C8.30252 1.18622 8.44 1.33644 8.53342 1.51654L8.58867 1.64257L10.7553 7.37151C10.8426 7.60199 10.8567 7.85622 10.7956 8.09593C10.7344 8.33563 10.6013 8.54784 10.4163 8.70062L10.3079 8.77853L8.49442 9.9289L8.56267 10.0469C9.42582 11.4963 10.5853 12.7226 11.9557 13.6355L12.0662 13.7066L13.1549 11.7908C13.2756 11.5778 13.4584 11.412 13.6759 11.3184C13.8933 11.2248 14.1337 11.2084 14.3607 11.2718L14.4853 11.3164L19.9019 13.608C20.0823 13.6841 20.24 13.8101 20.3585 13.9728C20.4771 14.1354 20.5521 14.3288 20.5758 14.5327L20.5833 14.6713V19.2545C20.5833 21.153 19.1284 22.6918 17.2683 22.6895C7.97442 22.0926 0.5655 14.2565 5.04882e-09 4.35923C-4.61735e-05 3.48247 0.316686 2.63882 0.885391 2.00091C1.4541 1.36299 2.23178 0.979041 3.05933 0.927604L3.25 0.921875H7.58333Z" fill="white"/>
</svg>
