<svg width="28" height="27" viewBox="0 0 28 27" fill="none" xmlns="http://www.w3.org/2000/svg">
<g clip-path="url(#clip0_1_269)">
<path d="M14.833 3.5L10.833 4.5L8.33301 5.5L5.83301 7.5L4.83301 10L4.33301 13L4.83301 16.5L5.83301 19.5L4.83301 23.5L8.83301 22.5H10.833L14.333 24L17.833 22.5L20.833 21L23.833 16.5L24.833 12.5L22.833 8L19.333 4.5L14.833 3.5Z" fill="white"/>
<path d="M4.20801 23.6251L6.06426 19.3501C4.64413 17.3341 4.00851 14.8692 4.27668 12.4179C4.54486 9.96663 5.69839 7.69746 7.5208 6.03627C9.34322 4.37507 11.7092 3.43605 14.1748 3.39542C16.6404 3.35479 19.0361 4.21535 20.9122 5.8156C22.7884 7.41585 24.016 9.64578 24.3648 12.0869C24.7136 14.528 24.1596 17.0125 22.8066 19.0742C21.4537 21.1358 19.3949 22.6328 17.0166 23.2843C14.6383 23.9358 12.104 23.6969 9.88926 22.6126L4.20801 23.6251Z" stroke="white" stroke-width="2" stroke-linecap="round" stroke-linejoin="round"/>
<path d="M9.83301 10.3077C9.83301 10.5117 9.91405 10.7074 10.0583 10.8516C10.2026 10.9959 10.3982 11.0769 10.6022 11.0769C10.8063 11.0769 11.0019 10.9959 11.1462 10.8516C11.2904 10.7074 11.3715 10.5117 11.3715 10.3077V8.76923C11.3715 8.56522 11.2904 8.36956 11.1462 8.2253C11.0019 8.08104 10.8063 8 10.6022 8C10.3982 8 10.2026 8.08104 10.0583 8.2253C9.91405 8.36956 9.83301 8.56522 9.83301 8.76923V10.3077ZM9.83301 10.3077C9.83301 12.3478 10.6434 14.3044 12.086 15.747C13.5286 17.1896 15.4852 18 17.5253 18M17.5253 18H19.0638C19.2678 18 19.4634 17.919 19.6077 17.7747C19.752 17.6304 19.833 17.4348 19.833 17.2308C19.833 17.0268 19.752 16.8311 19.6077 16.6868C19.4634 16.5426 19.2678 16.4615 19.0638 16.4615H17.5253C17.3213 16.4615 17.1256 16.5426 16.9814 16.6868C16.8371 16.8311 16.7561 17.0268 16.7561 17.2308C16.7561 17.4348 16.8371 17.6304 16.9814 17.7747C17.1256 17.919 17.3213 18 17.5253 18Z" stroke="#005A39" stroke-width="3" stroke-linecap="round" stroke-linejoin="round"/>
</g>
<defs>
<clipPath id="clip0_1_269">
<rect width="27" height="27" fill="white" transform="translate(0.833008)"/>
</clipPath>
</defs>
</svg>
